<svg width="1526" height="181" viewBox="0 0 1526 181" fill="none" xmlns="http://www.w3.org/2000/svg">
<path d="M0.863281 87.7831C0.863281 80.4281 2.23047 73.5288 4.96484 67.0851C7.69922 60.5762 11.5078 54.9136 16.3906 50.0971C21.3385 45.2806 27.1979 41.4729 33.9688 38.6741C40.7396 35.8753 48.1289 34.4759 56.1367 34.4759C64.2096 34.4759 71.6315 35.8753 78.4023 38.6741C85.2383 41.4729 91.0977 45.2806 95.9805 50.0971C100.928 54.9136 104.77 60.5762 107.504 67.0851C110.303 73.5288 111.703 80.4281 111.703 87.7831C111.703 95.2031 110.336 102.135 107.602 108.579C104.867 115.022 101.026 120.653 96.0781 125.469C91.1302 130.286 85.2383 134.093 78.4023 136.892C71.6315 139.626 64.1771 140.993 56.0391 140.993C48.0312 140.993 40.6419 139.626 33.8711 136.892C27.1654 134.093 21.3711 130.286 16.4883 125.469C11.6055 120.653 7.76432 115.022 4.96484 108.579C2.23047 102.07 0.863281 95.138 0.863281 87.7831ZM24.5938 87.6854C24.5938 92.5019 25.4076 96.9279 27.0352 100.963C28.7279 104.934 31.0065 108.383 33.8711 111.312C36.7357 114.176 40.0885 116.422 43.9297 118.049C47.7708 119.676 51.9049 120.49 56.332 120.49C60.7591 120.49 64.8932 119.709 68.7344 118.147C72.5755 116.519 75.9284 114.274 78.793 111.41C81.6576 108.481 83.9036 104.999 85.5312 100.963C87.224 96.9279 88.0703 92.5019 88.0703 87.6854C88.0703 82.934 87.224 78.5731 85.5312 74.6027C83.9036 70.5673 81.6576 67.1176 78.793 64.2537C75.9284 61.3898 72.543 59.1443 68.6367 57.5171C64.7956 55.8899 60.694 55.0763 56.332 55.0763C51.9049 55.0763 47.7708 55.8899 43.9297 57.5171C40.0885 59.0792 36.7357 61.3248 33.8711 64.2537C31.0065 67.1176 28.7279 70.5673 27.0352 74.6027C25.4076 78.5731 24.5938 82.934 24.5938 87.6854Z" fill="black"/>
<path d="M243.934 87.6854C243.934 95.0404 242.664 101.972 240.125 108.481C237.586 114.925 233.973 120.555 229.285 125.371C224.663 130.188 219.064 133.996 212.488 136.794C205.978 139.593 198.686 140.993 190.613 140.993C183.322 140.993 176.876 139.821 171.277 137.478C165.678 135.135 160.861 132.108 156.824 128.398V172.332H133.094V37.5025H152.43L154.285 49.2184C156.303 47.2657 158.582 45.4107 161.121 43.6534C163.66 41.8309 166.427 40.2362 169.422 38.8694C172.482 37.5025 175.737 36.4286 179.188 35.6475C182.703 34.8665 186.382 34.4759 190.223 34.4759C198.23 34.4759 205.522 35.8753 212.098 38.6741C218.738 41.4078 224.402 45.1829 229.09 49.9994C233.777 54.816 237.423 60.4786 240.027 66.9874C242.632 73.4311 243.934 80.3305 243.934 87.6854ZM220.203 87.7831C220.203 82.9665 219.357 78.5405 217.664 74.5051C215.971 70.4696 213.66 67.02 210.73 64.1561C207.801 61.2271 204.383 58.9816 200.477 57.4195C196.57 55.7923 192.404 54.9787 187.977 54.9787C183.484 54.9787 179.285 55.7923 175.379 57.4195C171.473 58.9816 168.055 61.2271 165.125 64.1561C162.26 67.02 159.982 70.4696 158.289 74.5051C156.596 78.4755 155.75 82.9014 155.75 87.7831C155.75 92.5345 156.596 96.9279 158.289 100.963C159.982 104.934 162.293 108.351 165.223 111.215C168.152 114.079 171.57 116.324 175.477 117.951C179.383 119.579 183.582 120.392 188.074 120.392C192.566 120.392 196.766 119.611 200.672 118.049C204.578 116.422 207.964 114.176 210.828 111.312C213.758 108.383 216.036 104.934 217.664 100.963C219.357 96.993 220.203 92.5996 220.203 87.7831Z" fill="black"/>
<path d="M259.758 87.7831C259.758 80.4281 261.125 73.5288 263.859 67.0851C266.594 60.5762 270.402 54.9136 275.285 50.0971C280.233 45.2806 286.092 41.4729 292.863 38.6741C299.634 35.8753 307.023 34.4759 315.031 34.4759C323.104 34.4759 330.526 35.8753 337.297 38.6741C344.133 41.4729 349.992 45.2806 354.875 50.0971C359.823 54.9136 363.664 60.5762 366.398 67.0851C369.198 73.5288 370.598 80.4281 370.598 87.7831C370.598 89.4103 370.533 90.712 370.402 91.6883C370.272 92.6647 370.142 93.6084 370.012 94.5197H283.098C283.879 98.6202 285.279 102.33 287.297 105.65C289.38 108.969 291.854 111.801 294.719 114.144C297.648 116.422 300.871 118.212 304.387 119.513C307.902 120.75 311.516 121.368 315.227 121.368C321.086 121.368 326.262 120.067 330.754 117.463C335.246 114.86 338.664 111.443 341.008 107.212H366.691C365.064 111.638 362.688 115.901 359.562 120.002C356.438 124.037 352.661 127.617 348.234 130.741C343.872 133.865 338.892 136.339 333.293 138.161C327.759 140.049 321.672 140.993 315.031 140.993C307.023 140.993 299.634 139.593 292.863 136.794C286.092 133.996 280.233 130.188 275.285 125.371C270.402 120.555 266.594 114.925 263.859 108.481C261.125 102.037 259.758 95.138 259.758 87.7831ZM315.227 53.5142C311.19 53.5142 307.447 54.1325 303.996 55.3692C300.611 56.5408 297.551 58.2005 294.816 60.3484C292.147 62.4963 289.868 65.0673 287.98 68.0614C286.092 70.9903 284.693 74.2122 283.781 77.7269H345.598C344.686 74.2122 343.319 70.9903 341.496 68.0614C339.673 65.0673 337.46 62.4963 334.855 60.3484C332.251 58.2005 329.289 56.5408 325.969 55.3692C322.714 54.1325 319.133 53.5142 315.227 53.5142Z" fill="black"/>
<path d="M493.062 137.966H469.137V84.3659C469.137 79.0287 468.551 74.5051 467.379 70.7951C466.207 67.0851 464.547 64.0585 462.398 61.7153C460.25 59.3721 457.613 57.6798 454.488 56.6384C451.428 55.597 447.978 55.0763 444.137 55.0763C439.97 55.0763 436.129 55.8574 432.613 57.4195C429.163 58.9165 426.168 61.0644 423.629 63.8632C421.09 66.5969 419.104 69.8838 417.672 73.724C416.305 77.4991 415.621 81.6648 415.621 86.2209V137.966H391.891V37.5025H411.227L412.984 47.6563C415.068 45.8338 417.411 44.1415 420.016 42.5794C422.62 40.9522 425.387 39.5528 428.316 38.3812C431.311 37.1445 434.436 36.2008 437.691 35.5499C440.947 34.8339 444.234 34.4759 447.555 34.4759C455.367 34.4759 462.138 35.5824 467.867 37.7954C473.596 39.9433 478.316 43.1326 482.027 47.3634C485.803 51.529 488.57 56.7035 490.328 62.8869C492.151 69.0051 493.062 76.0021 493.062 83.8778V137.966Z" fill="black"/>
<path d="M681.836 137.966H658.008V83.8778C658.008 73.9193 656.217 66.6294 652.637 62.0082C649.056 57.3869 643.978 55.0763 637.402 55.0763C633.626 55.0763 630.176 55.7272 627.051 57.0289C623.926 58.2656 621.191 60.0555 618.848 62.3987C616.569 64.7419 614.779 67.6383 613.477 71.088C612.174 74.4725 611.458 78.3127 611.328 82.6086V137.966H587.402V83.8778C587.402 73.9193 585.612 66.6294 582.031 62.0082C578.451 57.3869 573.372 55.0763 566.797 55.0763C562.956 55.0763 559.408 55.7272 556.152 57.0289C552.962 58.3307 550.228 60.2508 547.949 62.7892C545.671 65.2626 543.88 68.3217 542.578 71.9667C541.341 75.5465 540.723 79.6145 540.723 84.1707V137.966H516.992V37.5025H536.328L537.988 46.7776C539.876 45.0853 541.96 43.4906 544.238 41.9936C546.582 40.4966 549.121 39.1948 551.855 38.0883C554.59 36.9818 557.487 36.1031 560.547 35.4523C563.672 34.8014 566.927 34.4759 570.312 34.4759C577.344 34.4759 583.561 35.8102 588.965 38.4789C594.434 41.1475 598.958 44.9226 602.539 49.8042C604.492 47.7214 606.738 45.7687 609.277 43.9462C611.882 42.0587 614.746 40.4315 617.871 39.0646C620.996 37.6327 624.414 36.5262 628.125 35.7452C631.836 34.899 635.84 34.4759 640.137 34.4759C646.777 34.4759 652.669 35.5824 657.812 37.7954C663.021 39.9433 667.383 43.1001 670.898 47.2657C674.479 51.3663 677.181 56.4432 679.004 62.4963C680.892 68.5495 681.836 75.4489 681.836 83.1943V137.966Z" fill="black"/>
<path d="M700.688 87.7831C700.688 80.4281 701.957 73.5288 704.496 67.0851C707.1 60.5762 710.746 54.9136 715.434 50.0971C720.186 45.2806 725.85 41.4729 732.426 38.6741C739.066 35.8753 746.423 34.4759 754.496 34.4759C758.272 34.4759 761.853 34.8665 765.238 35.6475C768.689 36.3635 771.911 37.3724 774.906 38.6741C777.901 39.9108 780.635 41.4078 783.109 43.1652C785.648 44.8575 787.895 46.6474 789.848 48.535L791.215 37.5025H811.527V137.966H791.215L789.848 126.934C787.829 128.886 785.551 130.709 783.012 132.401C780.473 134.093 777.706 135.59 774.711 136.892C771.781 138.129 768.591 139.105 765.141 139.821C761.755 140.602 758.174 140.993 754.398 140.993C746.391 140.993 739.066 139.626 732.426 136.892C725.85 134.093 720.219 130.286 715.531 125.469C710.844 120.653 707.198 115.022 704.594 108.579C701.99 102.07 700.688 95.138 700.688 87.7831ZM724.418 87.6854C724.418 92.5019 725.264 96.9279 726.957 100.963C728.65 104.999 730.961 108.481 733.891 111.41C736.82 114.274 740.238 116.519 744.145 118.147C748.051 119.709 752.25 120.49 756.742 120.49C761.169 120.49 765.336 119.709 769.242 118.147C773.148 116.519 776.534 114.274 779.398 111.41C782.328 108.481 784.639 105.031 786.332 101.061C788.025 97.0256 788.871 92.567 788.871 87.6854C788.871 82.934 788.025 78.5731 786.332 74.6027C784.639 70.5673 782.328 67.1176 779.398 64.2537C776.469 61.3898 773.051 59.1443 769.145 57.5171C765.238 55.8899 761.039 55.0763 756.547 55.0763C752.055 55.0763 747.855 55.8899 743.949 57.5171C740.043 59.0792 736.625 61.3248 733.695 64.2537C730.831 67.1176 728.552 70.5673 726.859 74.6027C725.232 78.5731 724.418 82.934 724.418 87.6854Z" fill="black"/>
<path d="M905.574 58.2982L893.758 58.3958C889.135 58.3958 884.969 59.0792 881.258 60.4461C877.547 61.7478 874.357 63.733 871.688 66.4016C869.083 69.0051 867.065 72.2921 865.633 76.2625C864.266 80.1678 863.582 84.6914 863.582 89.8333V137.966H839.852V37.5025H859.09L861.238 49.5113C864.624 46.0616 868.888 43.1977 874.031 40.9197C879.24 38.6416 885.392 37.5025 892.488 37.5025H905.574V58.2982Z" fill="black"/>
<path d="M922.375 0.402344H946.105V87.3925L987.512 37.5025H1015.34L980.09 79.6796L1018.47 137.966H990.051L963 95.3007L946.105 114.73V137.966H922.375V0.402344Z" fill="black"/>
<path d="M1022.09 87.7831C1022.09 80.4281 1023.45 73.5288 1026.19 67.0851C1028.92 60.5762 1032.73 54.9136 1037.61 50.0971C1042.56 45.2806 1048.42 41.4729 1055.19 38.6741C1061.96 35.8753 1069.35 34.4759 1077.36 34.4759C1085.43 34.4759 1092.85 35.8753 1099.62 38.6741C1106.46 41.4729 1112.32 45.2806 1117.2 50.0971C1122.15 54.9136 1125.99 60.5762 1128.73 67.0851C1131.53 73.5288 1132.93 80.4281 1132.93 87.7831C1132.93 89.4103 1132.86 90.712 1132.73 91.6883C1132.6 92.6647 1132.47 93.6084 1132.34 94.5197H1045.43C1046.21 98.6202 1047.61 102.33 1049.62 105.65C1051.71 108.969 1054.18 111.801 1057.05 114.144C1059.98 116.422 1063.2 118.212 1066.71 119.513C1070.23 120.75 1073.84 121.368 1077.55 121.368C1083.41 121.368 1088.59 120.067 1093.08 117.463C1097.57 114.86 1100.99 111.443 1103.34 107.212H1129.02C1127.39 111.638 1125.02 115.901 1121.89 120.002C1118.77 124.037 1114.99 127.617 1110.56 130.741C1106.2 133.865 1101.22 136.339 1095.62 138.161C1090.09 140.049 1084 140.993 1077.36 140.993C1069.35 140.993 1061.96 139.593 1055.19 136.794C1048.42 133.996 1042.56 130.188 1037.61 125.371C1032.73 120.555 1028.92 114.925 1026.19 108.481C1023.45 102.037 1022.09 95.138 1022.09 87.7831ZM1077.55 53.5142C1073.52 53.5142 1069.77 54.1325 1066.32 55.3692C1062.94 56.5408 1059.88 58.2005 1057.14 60.3484C1054.48 62.4963 1052.2 65.0673 1050.31 68.0614C1048.42 70.9903 1047.02 74.2122 1046.11 77.7269H1107.93C1107.01 74.2122 1105.65 70.9903 1103.82 68.0614C1102 65.0673 1099.79 62.4963 1097.18 60.3484C1094.58 58.2005 1091.62 56.5408 1088.3 55.3692C1085.04 54.1325 1081.46 53.5142 1077.55 53.5142Z" fill="black"/>
<path d="M1166.13 8.99397L1183.52 8.89633V37.5025H1215.55V58.0053H1183.42V99.1084C1183.42 103.144 1183.87 106.496 1184.79 109.164C1185.76 111.768 1187.03 113.851 1188.59 115.413C1190.22 116.91 1192.11 117.984 1194.26 118.635C1196.41 119.221 1198.68 119.513 1201.09 119.513H1218.28L1218.09 139.04H1198.85C1193.44 139.04 1188.37 138.487 1183.61 137.38C1178.86 136.274 1174.73 134.256 1171.21 131.327C1167.7 128.333 1164.9 124.265 1162.81 119.123C1160.79 113.981 1159.79 107.375 1159.79 99.3036V58.0053H1142.99V39.6504L1159.2 35.1594L1166.13 8.99397Z" fill="black"/>
<path d="M1235.38 127.226C1235.38 125.404 1235.7 123.712 1236.35 122.15C1237 120.522 1237.95 119.09 1239.18 117.854C1240.42 116.617 1241.89 115.641 1243.58 114.925C1245.27 114.209 1247.16 113.851 1249.24 113.851C1251.33 113.851 1253.21 114.209 1254.91 114.925C1256.6 115.641 1258.06 116.617 1259.3 117.854C1260.54 119.09 1261.48 120.522 1262.13 122.15C1262.78 123.712 1263.11 125.404 1263.11 127.226C1263.11 129.049 1262.78 130.774 1262.13 132.401C1261.48 133.963 1260.54 135.362 1259.3 136.599C1258.06 137.771 1256.6 138.682 1254.91 139.333C1253.21 140.049 1251.33 140.407 1249.24 140.407C1247.16 140.407 1245.27 140.049 1243.58 139.333C1241.89 138.617 1240.42 137.673 1239.18 136.501C1237.95 135.265 1237 133.865 1236.35 132.303C1235.7 130.676 1235.38 128.984 1235.38 127.226Z" fill="black"/>
<path d="M1281.18 87.7831C1281.18 80.4281 1282.45 73.5288 1284.99 67.0851C1287.59 60.5762 1291.24 54.9136 1295.93 50.0971C1300.68 45.2806 1306.34 41.4729 1312.92 38.6741C1319.56 35.8753 1326.92 34.4759 1334.99 34.4759C1338.76 34.4759 1342.35 34.8665 1345.73 35.6475C1349.18 36.3635 1352.4 37.3724 1355.4 38.6741C1358.39 39.9108 1361.13 41.4078 1363.6 43.1652C1366.14 44.8575 1368.39 46.6474 1370.34 48.535L1371.71 37.5025H1392.02V137.966H1371.71L1370.34 126.934C1368.32 128.886 1366.04 130.709 1363.5 132.401C1360.96 134.093 1358.2 135.59 1355.2 136.892C1352.27 138.129 1349.08 139.105 1345.63 139.821C1342.25 140.602 1338.67 140.993 1334.89 140.993C1326.88 140.993 1319.56 139.626 1312.92 136.892C1306.34 134.093 1300.71 130.286 1296.02 125.469C1291.34 120.653 1287.69 115.022 1285.09 108.579C1282.48 102.07 1281.18 95.138 1281.18 87.7831ZM1304.91 87.6854C1304.91 92.5019 1305.76 96.9279 1307.45 100.963C1309.14 104.999 1311.45 108.481 1314.38 111.41C1317.31 114.274 1320.73 116.519 1324.64 118.147C1328.54 119.709 1332.74 120.49 1337.23 120.49C1341.66 120.49 1345.83 119.709 1349.73 118.147C1353.64 116.519 1357.03 114.274 1359.89 111.41C1362.82 108.481 1365.13 105.031 1366.82 101.061C1368.52 97.0256 1369.36 92.567 1369.36 87.6854C1369.36 82.934 1368.52 78.5731 1366.82 74.6027C1365.13 70.5673 1362.82 67.1176 1359.89 64.2537C1356.96 61.3898 1353.54 59.1443 1349.64 57.5171C1345.73 55.8899 1341.53 55.0763 1337.04 55.0763C1332.55 55.0763 1328.35 55.8899 1324.44 57.5171C1320.54 59.0792 1317.12 61.3248 1314.19 64.2537C1311.32 67.1176 1309.04 70.5673 1307.35 74.6027C1305.72 78.5731 1304.91 82.934 1304.91 87.6854Z" fill="#1B97FF"/>
<path d="M1414.48 87.7831C1414.48 80.4281 1415.75 73.5288 1418.29 67.0851C1420.9 60.5762 1424.54 54.9136 1429.23 50.0971C1433.98 45.2806 1439.65 41.4729 1446.22 38.6741C1452.86 35.8753 1460.22 34.4759 1468.29 34.4759C1472.2 34.4759 1475.88 34.8665 1479.33 35.6475C1482.84 36.4286 1486.1 37.5025 1489.09 38.8694C1492.15 40.1711 1494.95 41.7333 1497.49 43.5557C1500.03 45.3131 1502.28 47.1681 1504.23 49.1207L1506.09 37.5025H1525.42V128.496C1525.42 135.46 1524.35 142.099 1522.2 148.413C1520.05 154.791 1516.76 160.356 1512.34 165.108C1507.97 169.924 1502.44 173.732 1495.73 176.531C1489.09 179.394 1481.22 180.826 1472.1 180.826C1463.31 180.826 1455.73 179.655 1449.35 177.312C1443.03 174.968 1437.79 171.942 1433.62 168.232C1429.52 164.522 1426.4 160.356 1424.25 155.735C1422.1 151.179 1420.8 146.655 1420.34 142.164L1443.1 142.066C1443.81 144.54 1444.92 146.916 1446.42 149.194C1447.92 151.472 1449.84 153.489 1452.18 155.247C1454.59 157.004 1457.42 158.404 1460.68 159.445C1463.93 160.486 1467.71 161.007 1472 161.007C1478.25 161.007 1483.33 159.933 1487.24 157.785C1491.14 155.637 1494.17 152.969 1496.32 149.779C1498.53 146.59 1500.03 143.206 1500.81 139.626C1501.59 136.111 1501.98 132.922 1501.98 130.058V125.567C1499.9 127.519 1497.59 129.342 1495.05 131.034C1492.51 132.726 1489.74 134.223 1486.75 135.525C1483.76 136.762 1480.53 137.738 1477.08 138.454C1473.63 139.235 1469.99 139.626 1466.14 139.626C1458.66 139.626 1451.76 138.324 1445.44 135.72C1439.13 133.052 1433.66 129.407 1429.04 124.786C1424.48 120.164 1420.9 114.697 1418.29 108.383C1415.75 102.005 1414.48 95.138 1414.48 87.7831ZM1438.31 87.6854C1438.31 92.5019 1439.16 96.9279 1440.85 100.963C1442.54 104.999 1444.86 108.481 1447.79 111.41C1450.71 114.274 1454.13 116.519 1458.04 118.147C1461.95 119.709 1466.14 120.49 1470.64 120.49C1475.06 120.49 1479.23 119.709 1483.14 118.147C1487.04 116.519 1490.43 114.274 1493.29 111.41C1496.22 108.481 1498.53 105.031 1500.23 101.061C1501.92 97.0256 1502.77 92.567 1502.77 87.6854C1502.77 82.934 1501.92 78.5731 1500.23 74.6027C1498.53 70.5673 1496.22 67.1176 1493.29 64.2537C1490.36 61.3898 1486.95 59.1443 1483.04 57.5171C1479.13 55.8899 1474.97 55.0763 1470.54 55.0763C1466.05 55.0763 1461.82 55.8899 1457.84 57.5171C1453.94 59.0792 1450.52 61.3248 1447.59 64.2537C1444.73 67.1176 1442.45 70.5673 1440.75 74.6027C1439.13 78.5731 1438.31 82.934 1438.31 87.6854Z" fill="#1B97FF"/>
</svg>
