<svg width="1200" height="1200" viewBox="0 0 1200 1200" fill="none" xmlns="http://www.w3.org/2000/svg">
<rect width="1200" height="1200" rx="60" fill="#1B97FF"/>
<path d="M58 713.795C58 702.924 60.0193 692.725 64.058 683.201C68.0966 673.58 73.7219 665.21 80.9338 658.09C88.2418 650.971 96.8961 645.342 106.897 641.205C116.897 637.068 127.811 635 139.639 635C151.562 635 162.524 637.068 172.525 641.205C182.621 645.342 191.276 650.971 198.488 658.09C205.796 665.21 211.469 673.58 215.508 683.201C219.642 692.725 221.71 702.924 221.71 713.795C221.71 724.763 219.69 735.009 215.652 744.534C211.613 754.059 205.94 762.381 198.632 769.5C191.324 776.62 182.621 782.248 172.525 786.385C162.524 790.426 151.514 792.446 139.494 792.446C127.667 792.446 116.753 790.426 106.752 786.385C96.848 782.248 88.2899 776.62 81.078 769.5C73.8661 762.381 68.1928 754.059 64.058 744.534C60.0193 734.913 58 724.667 58 713.795ZM93.0498 713.651C93.0498 720.77 94.2517 727.313 96.6557 733.277C99.1558 739.146 102.521 744.245 106.752 748.575C110.983 752.808 115.935 756.127 121.609 758.532C127.282 760.938 133.388 762.14 139.927 762.14C146.466 762.14 152.572 760.986 158.245 758.677C163.919 756.271 168.871 752.952 173.102 748.719C177.333 744.39 180.65 739.242 183.054 733.277C185.554 727.313 186.804 720.77 186.804 713.651C186.804 706.628 185.554 700.182 183.054 694.313C180.65 688.348 177.333 683.249 173.102 679.016C168.871 674.782 163.87 671.463 158.101 669.058C152.428 666.653 146.37 665.45 139.927 665.45C133.388 665.45 127.282 666.653 121.609 669.058C115.935 671.367 110.983 674.686 106.752 679.016C102.521 683.249 99.1558 688.348 96.6557 694.313C94.2517 700.182 93.0498 706.628 93.0498 713.651Z" fill="white"/>
<path d="M408.151 713.651C408.151 724.522 406.276 734.769 402.526 744.39C398.776 753.914 393.439 762.236 386.516 769.356C379.689 776.475 371.419 782.104 361.707 786.241C352.091 790.378 341.321 792.446 329.398 792.446C318.628 792.446 309.108 790.714 300.839 787.251C292.569 783.787 285.453 779.313 279.491 773.83V838.771H244.442V639.474H273.001L275.741 656.791C278.722 653.905 282.088 651.163 285.838 648.565C289.588 645.872 293.675 643.514 298.098 641.494C302.618 639.474 307.425 637.886 312.522 636.732C317.714 635.577 323.147 635 328.821 635C340.648 635 351.418 637.068 361.13 641.205C370.938 645.246 379.304 650.826 386.227 657.946C393.151 665.065 398.536 673.435 402.382 683.056C406.228 692.581 408.151 702.779 408.151 713.651ZM373.102 713.795C373.102 706.676 371.852 700.133 369.352 694.169C366.851 688.204 363.438 683.104 359.111 678.871C354.784 674.542 349.735 671.223 343.966 668.914C338.196 666.508 332.042 665.306 325.503 665.306C318.868 665.306 312.666 666.508 306.897 668.914C301.127 671.223 296.079 674.542 291.752 678.871C287.521 683.104 284.155 688.204 281.655 694.169C279.155 700.037 277.905 706.579 277.905 713.795C277.905 720.818 279.155 727.313 281.655 733.277C284.155 739.146 287.569 744.197 291.896 748.43C296.223 752.664 301.271 755.983 307.041 758.388C312.81 760.793 319.013 761.996 325.647 761.996C332.282 761.996 338.485 760.841 344.254 758.532C350.024 756.127 355.024 752.808 359.255 748.575C363.582 744.245 366.948 739.146 369.352 733.277C371.852 727.409 373.102 720.915 373.102 713.795Z" fill="white"/>
<path d="M422.662 713.795C422.662 702.924 424.681 692.725 428.72 683.201C432.758 673.58 438.384 665.21 445.596 658.09C452.904 650.971 461.558 645.342 471.558 641.205C481.559 637.068 492.473 635 504.3 635C516.224 635 527.186 637.068 537.187 641.205C547.283 645.342 555.937 650.971 563.149 658.09C570.457 665.21 576.131 673.58 580.169 683.201C584.304 692.725 586.372 702.924 586.372 713.795C586.372 716.2 586.275 718.125 586.083 719.568C585.891 721.011 585.698 722.406 585.506 723.753H457.135C458.288 729.814 460.356 735.298 463.337 740.205C466.414 745.111 470.068 749.296 474.299 752.76C478.626 756.127 483.386 758.773 488.578 760.697C493.771 762.525 499.108 763.439 504.589 763.439C513.243 763.439 520.888 761.515 527.523 757.666C534.158 753.818 539.206 748.767 542.668 742.514H580.602C578.198 749.056 574.688 755.357 570.073 761.419C565.457 767.384 559.88 772.675 553.341 777.293C546.899 781.911 539.542 785.567 531.273 788.261C523.099 791.051 514.108 792.446 504.3 792.446C492.473 792.446 481.559 790.378 471.558 786.241C461.558 782.104 452.904 776.475 445.596 769.356C438.384 762.236 432.758 753.914 428.72 744.39C424.681 734.865 422.662 724.667 422.662 713.795ZM504.589 663.141C498.627 663.141 493.098 664.055 488.001 665.883C483.001 667.615 478.482 670.068 474.443 673.243C470.501 676.418 467.135 680.218 464.346 684.644C461.558 688.973 459.49 693.736 458.144 698.931H549.447C548.101 693.736 546.081 688.973 543.389 684.644C540.696 680.218 537.427 676.418 533.581 673.243C529.734 670.068 525.359 667.615 520.455 665.883C515.647 664.055 510.358 663.141 504.589 663.141Z" fill="white"/>
<path d="M758.389 787.972H723.051V708.744C723.051 700.855 722.186 694.169 720.455 688.685C718.724 683.201 716.272 678.727 713.099 675.263C709.926 671.8 706.031 669.299 701.416 667.759C696.896 666.22 691.8 665.45 686.126 665.45C679.972 665.45 674.299 666.605 669.106 668.914C664.01 671.126 659.587 674.301 655.836 678.438C652.086 682.479 649.153 687.338 647.038 693.014C645.019 698.594 644.009 704.752 644.009 711.486V787.972H608.959V639.474H637.518L640.115 654.482C643.192 651.788 646.653 649.287 650.5 646.978C654.346 644.573 658.433 642.504 662.76 640.773C667.183 638.945 671.799 637.55 676.607 636.587C681.415 635.529 686.271 635 691.175 635C702.714 635 712.714 636.636 721.176 639.907C729.638 643.082 736.61 647.796 742.091 654.049C747.668 660.207 751.755 667.855 754.351 676.995C757.043 686.039 758.389 696.381 758.389 708.023V787.972Z" fill="white"/>
<path d="M309.983 1083.53H274.789V1003.58C274.789 988.857 272.145 978.081 266.856 971.25C261.567 964.42 254.067 961.004 244.355 961.004C238.778 961.004 233.682 961.966 229.066 963.89C224.45 965.718 220.412 968.364 216.95 971.828C213.584 975.291 210.94 979.572 209.017 984.672C207.094 989.674 206.036 995.351 205.844 1001.7V1083.53H170.505V1003.58C170.505 988.857 167.861 978.081 162.572 971.25C157.284 964.42 149.783 961.004 140.071 961.004C134.398 961.004 129.157 961.966 124.349 963.89C119.638 965.815 115.599 968.653 112.233 972.405C108.868 976.061 106.223 980.583 104.3 985.97C102.473 991.262 101.56 997.275 101.56 1004.01V1083.53H66.51V935.028H95.0691L97.5211 948.738C100.31 946.236 103.387 943.879 106.752 941.666C110.214 939.453 113.964 937.529 118.003 935.894C122.042 934.258 126.321 932.959 130.84 931.997C135.456 931.035 140.264 930.554 145.264 930.554C155.649 930.554 164.832 932.526 172.813 936.471C180.891 940.415 187.574 945.996 192.862 953.211C195.747 950.133 199.064 947.246 202.815 944.552C206.661 941.762 210.892 939.357 215.508 937.337C220.123 935.22 225.172 933.585 230.653 932.43C236.134 931.179 242.047 930.554 248.394 930.554C258.202 930.554 266.904 932.19 274.501 935.461C282.193 938.636 288.636 943.302 293.829 949.459C299.117 955.52 303.108 963.025 305.8 971.972C308.589 980.919 309.983 991.118 309.983 1002.57V1083.53Z" fill="white"/>
<path d="M328.965 1009.35C328.965 998.478 330.84 988.279 334.59 978.755C338.437 969.134 343.821 960.764 350.745 953.644C357.764 946.525 366.13 940.896 375.842 936.759C385.65 932.622 396.516 930.554 408.44 930.554C414.017 930.554 419.306 931.131 424.306 932.286C429.402 933.344 434.162 934.835 438.586 936.759C443.009 938.587 447.048 940.8 450.702 943.398C454.452 945.899 457.769 948.545 460.654 951.335L462.673 935.028H492.675V1083.53H462.673L460.654 1067.22C457.673 1070.11 454.308 1072.8 450.557 1075.3C446.807 1077.8 442.72 1080.01 438.297 1081.94C433.97 1083.77 429.258 1085.21 424.162 1086.27C419.162 1087.42 413.873 1088 408.296 1088C396.468 1088 385.65 1085.98 375.842 1081.94C366.13 1077.8 357.813 1072.17 350.889 1065.05C343.966 1057.93 338.581 1049.61 334.734 1040.09C330.888 1030.47 328.965 1020.22 328.965 1009.35ZM364.015 1009.2C364.015 1016.32 365.265 1022.87 367.765 1028.83C370.265 1034.8 373.679 1039.94 378.006 1044.27C382.333 1048.51 387.381 1051.83 393.151 1054.23C398.92 1056.54 405.122 1057.69 411.757 1057.69C418.296 1057.69 424.45 1056.54 430.22 1054.23C435.989 1051.83 440.99 1048.51 445.221 1044.27C449.548 1039.94 452.961 1034.84 455.461 1028.98C457.962 1023.01 459.212 1016.42 459.212 1009.2C459.212 1002.18 457.962 995.736 455.461 989.867C452.961 983.902 449.548 978.803 445.221 974.57C440.893 970.336 435.845 967.017 430.076 964.612C424.306 962.207 418.104 961.004 411.469 961.004C404.834 961.004 398.632 962.207 392.862 964.612C387.093 966.921 382.044 970.24 377.717 974.57C373.486 978.803 370.121 983.902 367.621 989.867C365.217 995.736 364.015 1002.18 364.015 1009.2Z" fill="white"/>
<path d="M622.719 965.766L605.267 965.911C598.439 965.911 592.285 966.921 586.804 968.941C581.323 970.866 576.611 973.8 572.669 977.745C568.823 981.593 565.842 986.451 563.726 992.32C561.707 998.093 560.697 1004.78 560.697 1012.38V1083.53H525.647V935.028H554.062L557.236 952.778C562.236 947.679 568.534 943.446 576.131 940.079C583.823 936.711 592.91 935.028 603.392 935.028H622.719V965.766Z" fill="white"/>
<path d="M638.672 880.189H673.722V1008.77L734.879 935.028H775.986L723.917 997.371L780.602 1083.53H738.629L698.675 1020.46L673.722 1049.18V1083.53H638.672V880.189Z" fill="white"/>
<path d="M777.083 1009.35C777.083 998.478 779.102 988.279 783.141 978.755C787.179 969.134 792.805 960.764 800.016 953.644C807.325 946.525 815.979 940.896 825.979 936.759C835.98 932.622 846.894 930.554 858.721 930.554C870.645 930.554 881.607 932.622 891.607 936.759C901.704 940.896 910.358 946.525 917.57 953.644C924.878 960.764 930.552 969.134 934.59 978.755C938.725 988.279 940.792 998.478 940.792 1009.35C940.792 1011.75 940.696 1013.68 940.504 1015.12C940.312 1016.56 940.119 1017.96 939.927 1019.31H811.555C812.709 1025.37 814.777 1030.85 817.758 1035.76C820.835 1040.67 824.489 1044.85 828.72 1048.31C833.047 1051.68 837.807 1054.33 842.999 1056.25C848.192 1058.08 853.529 1058.99 859.01 1058.99C867.664 1058.99 875.309 1057.07 881.943 1053.22C888.578 1049.37 893.627 1044.32 897.088 1038.07H935.023C932.619 1044.61 929.109 1050.91 924.494 1056.97C919.878 1062.94 914.301 1068.23 907.762 1072.85C901.319 1077.47 893.963 1081.12 885.694 1083.81C877.52 1086.6 868.529 1088 858.721 1088C846.894 1088 835.98 1085.93 825.979 1081.79C815.979 1077.66 807.325 1072.03 800.016 1064.91C792.805 1057.79 787.179 1049.47 783.141 1039.94C779.102 1030.42 777.083 1020.22 777.083 1009.35ZM859.01 958.695C853.048 958.695 847.519 959.609 842.422 961.437C837.422 963.169 832.903 965.622 828.864 968.797C824.922 971.972 821.556 975.772 818.767 980.198C815.979 984.527 813.911 989.29 812.565 994.485H903.868C902.521 989.29 900.502 984.527 897.81 980.198C895.117 975.772 891.848 971.972 888.001 968.797C884.155 965.622 879.78 963.169 874.876 961.437C870.068 959.609 864.779 958.695 859.01 958.695Z" fill="white"/>
<path d="M980.977 892.888L1006.65 892.744V935.028H1053.96V965.334H1006.51V1026.09C1006.51 1032.05 1007.18 1037.01 1008.53 1040.95C1009.97 1044.8 1011.84 1047.88 1014.15 1050.19C1016.56 1052.4 1019.34 1053.99 1022.52 1054.95C1025.69 1055.82 1029.06 1056.25 1032.61 1056.25H1058L1057.71 1085.11H1029.3C1021.32 1085.11 1013.82 1084.3 1006.8 1082.66C999.776 1081.02 993.67 1078.04 988.477 1073.71C983.285 1069.29 979.15 1063.27 976.073 1055.67C973.092 1048.07 971.602 1038.31 971.602 1026.38V965.334H946.793V938.203L970.736 931.564L980.977 892.888Z" fill="white"/>
<path d="M1038.68 789H1058V635H920V656.033C977.507 675.6 1021.75 722.5 1038.68 789Z" fill="white"/>
</svg>
